<svg xmlns="http://www.w3.org/2000/svg" viewBox="0 0 148.219 29.813"><defs><style>.c{fill: #fff}</style></defs><path class="c" d="M.014 7.09L11.15 29.027h4.437L26.723 7.09h-7.786l-5.57 11.755L7.8 7.09H.014zM51.526 18.06a11.773 11.773 0 0 0-3.3-8.164 13.56 13.56 0 0 0-9.61-3.54 13.558 13.558 0 0 0-9.608 3.54 11.744 11.744 0 0 0 0 16.328 13.558 13.558 0 0 0 9.61 3.54 13.558 13.558 0 0 0 9.608-3.54 11.773 11.773 0 0 0 3.3-8.164zm-12.91-5.705a5.427 5.427 0 0 1 3.99 1.574 5.546 5.546 0 0 1 1.627 4.13 5.546 5.546 0 0 1-1.626 4.132 5.392 5.392 0 0 1-3.942 1.573 5.47 5.47 0 0 1-4.04-1.574 5.56 5.56 0 0 1-1.627-4.132 5.546 5.546 0 0 1 1.626-4.13 5.427 5.427 0 0 1 3.99-1.575zm30.98-4.13a13.892 13.892 0 0 0-7.294-1.87 9.7 9.7 0 0 0-6.653 2.213 6.79 6.79 0 0 0-2.12 5.066 5.405 5.405 0 0 0 1.577 3.98 8.785 8.785 0 0 0 3.548 2.016l1.774.54a9.366 9.366 0 0 1 2.167.788 1.448 1.448 0 0 1 .788 1.28 1.867 1.867 0 0 1-.74 1.425 3.976 3.976 0 0 1-2.217.493 6.645 6.645 0 0 1-2.957-.69 12.222 12.222 0 0 1-2.414-1.622l-3.005 4.772a13.08 13.08 0 0 0 9.02 3.148 9.508 9.508 0 0 0 7.144-2.508 7.957 7.957 0 0 0 2.267-5.754 5.225 5.225 0 0 0-1.724-4.18A9.353 9.353 0 0 0 65.11 15.4l-1.872-.588a12.782 12.782 0 0 1-2.12-.738 1.15 1.15 0 0 1-.69-.984 1.514 1.514 0 0 1 .445-.984 3.017 3.017 0 0 1 2.02-.64 8.08 8.08 0 0 1 3.894 1.232zm10.33 6.835a4.923 4.923 0 0 1 1.232-2.36 5.217 5.217 0 0 1 6.948-.2 5.573 5.573 0 0 1 1.43 2.556h-9.61zm16.16 3.492a12.494 12.494 0 0 0-3.1-8.9 11.608 11.608 0 0 0-8.72-3.3 11.516 11.516 0 0 0-8.428 3.148 12.476 12.476 0 0 0-3.35 8.66 11.77 11.77 0 0 0 3.3 8.454c2.562 2.557 5.47 3.148 8.77 3.148a13.07 13.07 0 0 0 6.95-1.623 9.942 9.942 0 0 0 4.28-5.538l-6.746-.656a4.3 4.3 0 0 1-1.528 1.82 5.84 5.84 0 0 1-2.858.64 4.767 4.767 0 0 1-3.647-1.378 5.986 5.986 0 0 1-1.332-3.738h16.41v-.738zm1.84 6.787a4.485 4.485 0 1 0 4.484-4.475 4.434 4.434 0 0 0-4.48 4.475zm22.98-12.54V7.09h-4.386V.013h-7.1v7.08h-2.464v5.704h2.464v16.23h7.1v-16.23h4.386zm.607-5.706l11.138 21.936h4.437l11.14-21.935h-7.787l-5.57 11.755-5.567-11.754h-7.787z"/></svg>
